<mxfile host="app.diagrams.net" modified="2023-10-26T14:23:03.907Z" agent="Mozilla/5.0 (X11; Linux x86_64; rv:102.0) Gecko/20100101 Firefox/102.0" version="22.0.8" etag="f7s0omEAHZn_2bEabqy_" type="github">
  <diagram name="Page-1" id="C9KUAYKc2_RZJfzI-t58">
    <mxGraphModel>
      <root>
        <mxCell id="0" />
        <mxCell id="1" parent="0" />
      </root>
    </mxGraphModel>
  </diagram>
</mxfile>
